<mxfile host="app.diagrams.net" agent="Mozilla/5.0 (Macintosh; Intel Mac OS X 10_15_7) AppleWebKit/537.36 (KHTML, like Gecko) Chrome/126.0.0.0 YaBrowser/24.7.0.0 Safari/537.36" version="24.7.14">
  <diagram name="Страница — 1" id="wMiGqEO-0glnp5uPPuF9">
    <mxGraphModel dx="421" dy="917" grid="1" gridSize="10" guides="1" tooltips="1" connect="1" arrows="1" fold="1" page="1" pageScale="1" pageWidth="827" pageHeight="1169" math="0" shadow="0">
      <root>
        <mxCell id="0" />
        <mxCell id="1" parent="0" />
        <mxCell id="lFF-irgtBD97sz9iK4WE-1" value="Начало" style="rounded=1;whiteSpace=wrap;html=1;arcSize=50;" vertex="1" parent="1">
          <mxGeometry x="160" y="90" width="120" height="60" as="geometry" />
        </mxCell>
        <mxCell id="lFF-irgtBD97sz9iK4WE-2" value="Конец" style="rounded=1;whiteSpace=wrap;html=1;arcSize=50;" vertex="1" parent="1">
          <mxGeometry x="160" y="980" width="120" height="60" as="geometry" />
        </mxCell>
        <mxCell id="lFF-irgtBD97sz9iK4WE-11" style="edgeStyle=orthogonalEdgeStyle;rounded=0;orthogonalLoop=1;jettySize=auto;html=1;exitX=0.5;exitY=1;exitDx=0;exitDy=0;exitPerimeter=0;entryX=0.5;entryY=0;entryDx=0;entryDy=0;endArrow=none;endFill=0;" edge="1" parent="1" source="lFF-irgtBD97sz9iK4WE-3" target="lFF-irgtBD97sz9iK4WE-4">
          <mxGeometry relative="1" as="geometry" />
        </mxCell>
        <mxCell id="lFF-irgtBD97sz9iK4WE-3" value="numbers" style="shape=card;whiteSpace=wrap;html=1;" vertex="1" parent="1">
          <mxGeometry x="180" y="184" width="80" height="60" as="geometry" />
        </mxCell>
        <mxCell id="lFF-irgtBD97sz9iK4WE-12" style="edgeStyle=orthogonalEdgeStyle;rounded=0;orthogonalLoop=1;jettySize=auto;html=1;exitX=0.5;exitY=1;exitDx=0;exitDy=0;entryX=0.5;entryY=0;entryDx=0;entryDy=0;endArrow=none;endFill=0;" edge="1" parent="1" source="lFF-irgtBD97sz9iK4WE-4" target="lFF-irgtBD97sz9iK4WE-5">
          <mxGeometry relative="1" as="geometry" />
        </mxCell>
        <mxCell id="lFF-irgtBD97sz9iK4WE-13" style="edgeStyle=orthogonalEdgeStyle;rounded=0;orthogonalLoop=1;jettySize=auto;html=1;exitX=1;exitY=0.5;exitDx=0;exitDy=0;entryX=0.5;entryY=0;entryDx=0;entryDy=0;endArrow=none;endFill=0;" edge="1" parent="1" source="lFF-irgtBD97sz9iK4WE-4" target="lFF-irgtBD97sz9iK4WE-6">
          <mxGeometry relative="1" as="geometry">
            <Array as="points">
              <mxPoint x="320" y="308" />
              <mxPoint x="320" y="430" />
              <mxPoint x="220" y="430" />
            </Array>
          </mxGeometry>
        </mxCell>
        <mxCell id="lFF-irgtBD97sz9iK4WE-4" value="numbers.Length &amp;lt; 2" style="rhombus;whiteSpace=wrap;html=1;" vertex="1" parent="1">
          <mxGeometry x="140" y="268" width="160" height="80" as="geometry" />
        </mxCell>
        <mxCell id="lFF-irgtBD97sz9iK4WE-27" style="edgeStyle=orthogonalEdgeStyle;rounded=0;orthogonalLoop=1;jettySize=auto;html=1;exitX=0;exitY=0.5;exitDx=0;exitDy=0;entryX=0.5;entryY=0;entryDx=0;entryDy=0;" edge="1" parent="1" source="lFF-irgtBD97sz9iK4WE-5" target="lFF-irgtBD97sz9iK4WE-2">
          <mxGeometry relative="1" as="geometry">
            <mxPoint x="50" y="710" as="targetPoint" />
            <Array as="points">
              <mxPoint x="40" y="392" />
              <mxPoint x="40" y="960" />
              <mxPoint x="220" y="960" />
            </Array>
          </mxGeometry>
        </mxCell>
        <mxCell id="lFF-irgtBD97sz9iK4WE-5" value="You should enter two numbers" style="shape=document;whiteSpace=wrap;html=1;boundedLbl=1;" vertex="1" parent="1">
          <mxGeometry x="165" y="362" width="110" height="60" as="geometry" />
        </mxCell>
        <mxCell id="lFF-irgtBD97sz9iK4WE-14" style="edgeStyle=orthogonalEdgeStyle;rounded=0;orthogonalLoop=1;jettySize=auto;html=1;exitX=0.5;exitY=1;exitDx=0;exitDy=0;entryX=0.5;entryY=0;entryDx=0;entryDy=0;endArrow=none;endFill=0;" edge="1" parent="1" source="lFF-irgtBD97sz9iK4WE-6" target="lFF-irgtBD97sz9iK4WE-7">
          <mxGeometry relative="1" as="geometry" />
        </mxCell>
        <mxCell id="lFF-irgtBD97sz9iK4WE-18" style="edgeStyle=orthogonalEdgeStyle;rounded=0;orthogonalLoop=1;jettySize=auto;html=1;exitX=1;exitY=0.5;exitDx=0;exitDy=0;entryX=0.5;entryY=0;entryDx=0;entryDy=0;endArrow=none;endFill=0;" edge="1" parent="1" source="lFF-irgtBD97sz9iK4WE-6" target="lFF-irgtBD97sz9iK4WE-8">
          <mxGeometry relative="1" as="geometry">
            <Array as="points">
              <mxPoint x="320" y="495" />
              <mxPoint x="320" y="610" />
              <mxPoint x="220" y="610" />
            </Array>
          </mxGeometry>
        </mxCell>
        <mxCell id="lFF-irgtBD97sz9iK4WE-6" value="numbers[1] = 0" style="rhombus;whiteSpace=wrap;html=1;" vertex="1" parent="1">
          <mxGeometry x="140" y="455" width="160" height="80" as="geometry" />
        </mxCell>
        <mxCell id="lFF-irgtBD97sz9iK4WE-26" style="edgeStyle=orthogonalEdgeStyle;rounded=0;orthogonalLoop=1;jettySize=auto;html=1;exitX=0;exitY=0.5;exitDx=0;exitDy=0;entryX=0.5;entryY=0;entryDx=0;entryDy=0;" edge="1" parent="1" source="lFF-irgtBD97sz9iK4WE-7" target="lFF-irgtBD97sz9iK4WE-2">
          <mxGeometry relative="1" as="geometry">
            <Array as="points">
              <mxPoint x="40" y="580" />
              <mxPoint x="40" y="960" />
              <mxPoint x="220" y="960" />
            </Array>
          </mxGeometry>
        </mxCell>
        <mxCell id="lFF-irgtBD97sz9iK4WE-7" value="You can&#39;t divide by zero" style="shape=document;whiteSpace=wrap;html=1;boundedLbl=1;" vertex="1" parent="1">
          <mxGeometry x="165" y="549" width="110" height="60" as="geometry" />
        </mxCell>
        <mxCell id="lFF-irgtBD97sz9iK4WE-17" style="edgeStyle=orthogonalEdgeStyle;rounded=0;orthogonalLoop=1;jettySize=auto;html=1;exitX=1;exitY=0.5;exitDx=0;exitDy=0;endArrow=none;endFill=0;entryX=0.5;entryY=0;entryDx=0;entryDy=0;" edge="1" parent="1" source="lFF-irgtBD97sz9iK4WE-8" target="lFF-irgtBD97sz9iK4WE-23">
          <mxGeometry relative="1" as="geometry">
            <mxPoint x="220" y="870" as="targetPoint" />
            <Array as="points">
              <mxPoint x="385" y="683" />
              <mxPoint x="385" y="860" />
              <mxPoint x="220" y="860" />
            </Array>
          </mxGeometry>
        </mxCell>
        <mxCell id="lFF-irgtBD97sz9iK4WE-19" style="edgeStyle=orthogonalEdgeStyle;rounded=0;orthogonalLoop=1;jettySize=auto;html=1;exitX=0.5;exitY=1;exitDx=0;exitDy=0;entryX=0.5;entryY=0;entryDx=0;entryDy=0;endArrow=none;endFill=0;" edge="1" parent="1" source="lFF-irgtBD97sz9iK4WE-8" target="lFF-irgtBD97sz9iK4WE-9">
          <mxGeometry relative="1" as="geometry" />
        </mxCell>
        <mxCell id="lFF-irgtBD97sz9iK4WE-8" value="numbers[0] is not decimal&lt;div&gt;or&lt;/div&gt;&lt;div&gt;numbers[1] is not decimal&lt;br&gt;&lt;/div&gt;&lt;div&gt;&lt;br&gt;&lt;/div&gt;" style="rhombus;whiteSpace=wrap;html=1;" vertex="1" parent="1">
          <mxGeometry x="75" y="623" width="290" height="120" as="geometry" />
        </mxCell>
        <mxCell id="lFF-irgtBD97sz9iK4WE-25" style="edgeStyle=orthogonalEdgeStyle;rounded=0;orthogonalLoop=1;jettySize=auto;html=1;entryX=0.5;entryY=0;entryDx=0;entryDy=0;" edge="1" parent="1" source="lFF-irgtBD97sz9iK4WE-9" target="lFF-irgtBD97sz9iK4WE-2">
          <mxGeometry relative="1" as="geometry">
            <Array as="points">
              <mxPoint x="40" y="790" />
              <mxPoint x="40" y="960" />
              <mxPoint x="220" y="960" />
            </Array>
          </mxGeometry>
        </mxCell>
        <mxCell id="lFF-irgtBD97sz9iK4WE-9" value="You should enter two numbers" style="shape=document;whiteSpace=wrap;html=1;boundedLbl=1;" vertex="1" parent="1">
          <mxGeometry x="165" y="760" width="110" height="60" as="geometry" />
        </mxCell>
        <mxCell id="lFF-irgtBD97sz9iK4WE-10" style="edgeStyle=orthogonalEdgeStyle;rounded=0;orthogonalLoop=1;jettySize=auto;html=1;exitX=0.5;exitY=1;exitDx=0;exitDy=0;entryX=0.5;entryY=0;entryDx=0;entryDy=0;entryPerimeter=0;endArrow=none;endFill=0;" edge="1" parent="1" source="lFF-irgtBD97sz9iK4WE-1" target="lFF-irgtBD97sz9iK4WE-3">
          <mxGeometry relative="1" as="geometry" />
        </mxCell>
        <mxCell id="lFF-irgtBD97sz9iK4WE-21" value="Да" style="text;html=1;align=center;verticalAlign=middle;whiteSpace=wrap;rounded=0;" vertex="1" parent="1">
          <mxGeometry x="150" y="332" width="60" height="30" as="geometry" />
        </mxCell>
        <mxCell id="lFF-irgtBD97sz9iK4WE-22" value="Нет" style="text;html=1;align=center;verticalAlign=middle;whiteSpace=wrap;rounded=0;" vertex="1" parent="1">
          <mxGeometry x="280" y="268" width="60" height="30" as="geometry" />
        </mxCell>
        <mxCell id="lFF-irgtBD97sz9iK4WE-28" style="edgeStyle=orthogonalEdgeStyle;rounded=0;orthogonalLoop=1;jettySize=auto;html=1;entryX=0.5;entryY=0;entryDx=0;entryDy=0;exitX=0.496;exitY=0.839;exitDx=0;exitDy=0;exitPerimeter=0;" edge="1" parent="1" source="lFF-irgtBD97sz9iK4WE-23" target="lFF-irgtBD97sz9iK4WE-2">
          <mxGeometry relative="1" as="geometry" />
        </mxCell>
        <mxCell id="lFF-irgtBD97sz9iK4WE-23" value="numbers[0] / numbers[1]" style="shape=document;whiteSpace=wrap;html=1;boundedLbl=1;" vertex="1" parent="1">
          <mxGeometry x="165" y="880" width="110" height="60" as="geometry" />
        </mxCell>
        <mxCell id="lFF-irgtBD97sz9iK4WE-29" value="Да" style="text;html=1;align=center;verticalAlign=middle;whiteSpace=wrap;rounded=0;" vertex="1" parent="1">
          <mxGeometry x="140" y="510" width="60" height="30" as="geometry" />
        </mxCell>
        <mxCell id="lFF-irgtBD97sz9iK4WE-30" value="Нет" style="text;html=1;align=center;verticalAlign=middle;whiteSpace=wrap;rounded=0;" vertex="1" parent="1">
          <mxGeometry x="275" y="470" width="60" height="30" as="geometry" />
        </mxCell>
        <mxCell id="lFF-irgtBD97sz9iK4WE-31" value="Нет" style="text;html=1;align=center;verticalAlign=middle;whiteSpace=wrap;rounded=0;" vertex="1" parent="1">
          <mxGeometry x="340" y="650" width="60" height="30" as="geometry" />
        </mxCell>
        <mxCell id="lFF-irgtBD97sz9iK4WE-32" value="Да" style="text;html=1;align=center;verticalAlign=middle;whiteSpace=wrap;rounded=0;" vertex="1" parent="1">
          <mxGeometry x="160" y="730" width="60" height="30" as="geometry" />
        </mxCell>
      </root>
    </mxGraphModel>
  </diagram>
</mxfile>
